<svg width="135" height="27" viewBox="0 0 135 27" fill="none" xmlns="http://www.w3.org/2000/svg">
<path d="M14.9333 2H0.839564C0.375885 2 0 2.37589 0 2.83957V11.5111C0 11.9038 0.318375 12.2222 0.711111 12.2222C3.67904 12.2222 6.11172 14.9749 6.44896 18.4946C6.49319 18.9561 6.113 19.3333 5.64932 19.3333H0.839565C0.375886 19.3333 0 19.7092 0 20.1729V25.1604C0 25.6241 0.375886 26 0.839565 26H1.51111C9.86667 26 16.7111 19.1556 16.7111 10.8V3.77778C16.7111 2.8 15.9111 2 14.9333 2ZM8.35556 8.13333C7.37778 8.13333 6.66667 8.93333 6.66667 9.82222H4.88889C4.88889 7.86667 6.48889 6.35556 8.35556 6.35556C10.2222 6.35556 11.8222 7.95556 11.8222 9.82222H10.0444C10.0444 8.84444 9.33333 8.13333 8.35556 8.13333ZM11.9111 15.7778C10.8444 15.7778 9.95556 15.0667 9.95556 13.9111C9.95556 12.2222 11.9111 10.8889 11.9111 10.8889C11.9111 10.8889 13.8667 12.2222 13.8667 13.9111C13.8667 14.9778 12.9778 15.7778 11.9111 15.7778Z" fill="#F4694C"/>
<path d="M34.52 8.88C34.2533 8.49333 33.8933 8.21333 33.44 8.04C33 7.85333 32.5333 7.76 32.04 7.76C31.7467 7.76 31.46 7.79333 31.18 7.86C30.9133 7.92667 30.6667 8.03333 30.44 8.18C30.2267 8.32667 30.0533 8.52 29.92 8.76C29.7867 8.98667 29.72 9.26 29.72 9.58C29.72 10.06 29.8867 10.4267 30.22 10.68C30.5533 10.9333 30.9667 11.1533 31.46 11.34C31.9533 11.5267 32.4933 11.7067 33.08 11.88C33.6667 12.0533 34.2067 12.2933 34.7 12.6C35.1933 12.9067 35.6067 13.3133 35.94 13.82C36.2733 14.3267 36.44 15 36.44 15.84C36.44 16.6 36.3 17.2667 36.02 17.84C35.74 18.4 35.36 18.8667 34.88 19.24C34.4133 19.6133 33.8667 19.8933 33.24 20.08C32.6133 20.2667 31.9533 20.36 31.26 20.36C30.38 20.36 29.5333 20.2133 28.72 19.92C27.9067 19.6267 27.2067 19.1333 26.62 18.44L28.52 16.6C28.8267 17.0667 29.2267 17.4333 29.72 17.7C30.2267 17.9533 30.76 18.08 31.32 18.08C31.6133 18.08 31.9067 18.04 32.2 17.96C32.4933 17.88 32.76 17.76 33 17.6C33.24 17.44 33.4333 17.24 33.58 17C33.7267 16.7467 33.8 16.46 33.8 16.14C33.8 15.62 33.6333 15.22 33.3 14.94C32.9667 14.66 32.5533 14.4267 32.06 14.24C31.5667 14.04 31.0267 13.8533 30.44 13.68C29.8533 13.5067 29.3133 13.2733 28.82 12.98C28.3267 12.6733 27.9133 12.2733 27.58 11.78C27.2467 11.2733 27.08 10.6 27.08 9.76C27.08 9.02667 27.2267 8.39333 27.52 7.86C27.8267 7.32667 28.22 6.88667 28.7 6.54C29.1933 6.18 29.7533 5.91333 30.38 5.74C31.0067 5.56667 31.6467 5.48 32.3 5.48C33.0467 5.48 33.7667 5.59333 34.46 5.82C35.1667 6.04667 35.8 6.42 36.36 6.94L34.52 8.88ZM41.1644 16.04C41.2444 16.76 41.5244 17.32 42.0044 17.72C42.4844 18.12 43.0644 18.32 43.7444 18.32C44.3444 18.32 44.8444 18.2 45.2444 17.96C45.6577 17.7067 46.0177 17.3933 46.3244 17.02L48.0444 18.32C47.4844 19.0133 46.8577 19.5067 46.1644 19.8C45.471 20.0933 44.7444 20.24 43.9844 20.24C43.2644 20.24 42.5844 20.12 41.9444 19.88C41.3044 19.64 40.751 19.3 40.2844 18.86C39.8177 18.42 39.4444 17.8933 39.1644 17.28C38.8977 16.6533 38.7644 15.96 38.7644 15.2C38.7644 14.44 38.8977 13.7533 39.1644 13.14C39.4444 12.5133 39.8177 11.98 40.2844 11.54C40.751 11.1 41.3044 10.76 41.9444 10.52C42.5844 10.28 43.2644 10.16 43.9844 10.16C44.651 10.16 45.2577 10.28 45.8044 10.52C46.3644 10.7467 46.8377 11.08 47.2244 11.52C47.6244 11.96 47.931 12.5067 48.1444 13.16C48.371 13.8 48.4844 14.54 48.4844 15.38V16.04H41.1644ZM46.0844 14.24C46.071 13.5333 45.851 12.98 45.4244 12.58C44.9977 12.1667 44.4044 11.96 43.6444 11.96C42.9244 11.96 42.351 12.1667 41.9244 12.58C41.511 12.9933 41.2577 13.5467 41.1644 14.24H46.0844ZM58.7287 18.56H58.6887C58.3421 19.1467 57.8754 19.5733 57.2887 19.84C56.7021 20.1067 56.0687 20.24 55.3887 20.24C54.6421 20.24 53.9754 20.1133 53.3887 19.86C52.8154 19.5933 52.3221 19.2333 51.9087 18.78C51.4954 18.3267 51.1821 17.7933 50.9687 17.18C50.7554 16.5667 50.6487 15.9067 50.6487 15.2C50.6487 14.4933 50.7621 13.8333 50.9887 13.22C51.2154 12.6067 51.5287 12.0733 51.9287 11.62C52.3421 11.1667 52.8354 10.8133 53.4087 10.56C53.9821 10.2933 54.6087 10.16 55.2887 10.16C55.7421 10.16 56.1421 10.2067 56.4887 10.3C56.8354 10.3933 57.1421 10.5133 57.4087 10.66C57.6754 10.8067 57.9021 10.9667 58.0887 11.14C58.2754 11.3 58.4287 11.46 58.5487 11.62H58.6087V4.88H61.0087V20H58.7287V18.56ZM53.0487 15.2C53.0487 15.5733 53.1087 15.9333 53.2287 16.28C53.3621 16.6267 53.5487 16.9333 53.7887 17.2C54.0421 17.4667 54.3421 17.68 54.6887 17.84C55.0354 18 55.4287 18.08 55.8687 18.08C56.3087 18.08 56.7021 18 57.0487 17.84C57.3954 17.68 57.6887 17.4667 57.9287 17.2C58.1821 16.9333 58.3687 16.6267 58.4887 16.28C58.6221 15.9333 58.6887 15.5733 58.6887 15.2C58.6887 14.8267 58.6221 14.4667 58.4887 14.12C58.3687 13.7733 58.1821 13.4667 57.9287 13.2C57.6887 12.9333 57.3954 12.72 57.0487 12.56C56.7021 12.4 56.3087 12.32 55.8687 12.32C55.4287 12.32 55.0354 12.4 54.6887 12.56C54.3421 12.72 54.0421 12.9333 53.7887 13.2C53.5487 13.4667 53.3621 13.7733 53.2287 14.12C53.1087 14.4667 53.0487 14.8267 53.0487 15.2ZM64.1459 4.88H66.5459V11.62H66.6059C66.7259 11.46 66.8793 11.3 67.0659 11.14C67.2526 10.9667 67.4793 10.8067 67.7459 10.66C68.0126 10.5133 68.3193 10.3933 68.6659 10.3C69.0126 10.2067 69.4126 10.16 69.8659 10.16C70.5459 10.16 71.1726 10.2933 71.7459 10.56C72.3193 10.8133 72.8059 11.1667 73.2059 11.62C73.6193 12.0733 73.9393 12.6067 74.1659 13.22C74.3926 13.8333 74.5059 14.4933 74.5059 15.2C74.5059 15.9067 74.3993 16.5667 74.1859 17.18C73.9726 17.7933 73.6593 18.3267 73.2459 18.78C72.8326 19.2333 72.3326 19.5933 71.7459 19.86C71.1593 20.1133 70.4993 20.24 69.7659 20.24C69.0859 20.24 68.4526 20.1067 67.8659 19.84C67.2793 19.5733 66.8126 19.1467 66.4659 18.56H66.4259V20H64.1459V4.88ZM72.1059 15.2C72.1059 14.8267 72.0393 14.4667 71.9059 14.12C71.7859 13.7733 71.5993 13.4667 71.3459 13.2C71.1059 12.9333 70.8126 12.72 70.4659 12.56C70.1193 12.4 69.7259 12.32 69.2859 12.32C68.8459 12.32 68.4526 12.4 68.1059 12.56C67.7593 12.72 67.4593 12.9333 67.2059 13.2C66.9659 13.4667 66.7793 13.7733 66.6459 14.12C66.5259 14.4667 66.4659 14.8267 66.4659 15.2C66.4659 15.5733 66.5259 15.9333 66.6459 16.28C66.7793 16.6267 66.9659 16.9333 67.2059 17.2C67.4593 17.4667 67.7593 17.68 68.1059 17.84C68.4526 18 68.8459 18.08 69.2859 18.08C69.7259 18.08 70.1193 18 70.4659 17.84C70.8126 17.68 71.1059 17.4667 71.3459 17.2C71.5993 16.9333 71.7859 16.6267 71.9059 16.28C72.0393 15.9333 72.1059 15.5733 72.1059 15.2ZM76.6636 15.2C76.6636 14.44 76.7969 13.7533 77.0636 13.14C77.3436 12.5133 77.7169 11.98 78.1836 11.54C78.6503 11.1 79.2036 10.76 79.8436 10.52C80.4836 10.28 81.1636 10.16 81.8836 10.16C82.6036 10.16 83.2836 10.28 83.9236 10.52C84.5636 10.76 85.1169 11.1 85.5836 11.54C86.0503 11.98 86.4169 12.5133 86.6836 13.14C86.9636 13.7533 87.1036 14.44 87.1036 15.2C87.1036 15.96 86.9636 16.6533 86.6836 17.28C86.4169 17.8933 86.0503 18.42 85.5836 18.86C85.1169 19.3 84.5636 19.64 83.9236 19.88C83.2836 20.12 82.6036 20.24 81.8836 20.24C81.1636 20.24 80.4836 20.12 79.8436 19.88C79.2036 19.64 78.6503 19.3 78.1836 18.86C77.7169 18.42 77.3436 17.8933 77.0636 17.28C76.7969 16.6533 76.6636 15.96 76.6636 15.2ZM79.0636 15.2C79.0636 15.5733 79.1236 15.9333 79.2436 16.28C79.3769 16.6267 79.5636 16.9333 79.8036 17.2C80.0569 17.4667 80.3569 17.68 80.7036 17.84C81.0503 18 81.4436 18.08 81.8836 18.08C82.3236 18.08 82.7169 18 83.0636 17.84C83.4103 17.68 83.7036 17.4667 83.9436 17.2C84.1969 16.9333 84.3836 16.6267 84.5036 16.28C84.6369 15.9333 84.7036 15.5733 84.7036 15.2C84.7036 14.8267 84.6369 14.4667 84.5036 14.12C84.3836 13.7733 84.1969 13.4667 83.9436 13.2C83.7036 12.9333 83.4103 12.72 83.0636 12.56C82.7169 12.4 82.3236 12.32 81.8836 12.32C81.4436 12.32 81.0503 12.4 80.7036 12.56C80.3569 12.72 80.0569 12.9333 79.8036 13.2C79.5636 13.4667 79.3769 13.7733 79.2436 14.12C79.1236 14.4667 79.0636 14.8267 79.0636 15.2ZM89.7906 10.4H92.1906V20H89.7906V10.4ZM89.4506 7.14C89.4506 6.75333 89.5906 6.42 89.8706 6.14C90.164 5.84667 90.5306 5.7 90.9706 5.7C91.4106 5.7 91.7773 5.84 92.0706 6.12C92.3773 6.38667 92.5306 6.72667 92.5306 7.14C92.5306 7.55333 92.3773 7.9 92.0706 8.18C91.7773 8.44667 91.4106 8.58 90.9706 8.58C90.5306 8.58 90.164 8.44 89.8706 8.16C89.5906 7.86667 89.4506 7.52667 89.4506 7.14ZM95.3459 18.6C95.3459 18.1733 95.4993 17.8067 95.8059 17.5C96.1259 17.1933 96.5059 17.04 96.9459 17.04C97.3726 17.04 97.7459 17.1867 98.0659 17.48C98.3859 17.7733 98.5459 18.1333 98.5459 18.56C98.5459 18.9867 98.3859 19.3533 98.0659 19.66C97.7593 19.9667 97.3859 20.12 96.9459 20.12C96.7326 20.12 96.5259 20.08 96.3259 20C96.1393 19.92 95.9726 19.8133 95.8259 19.68C95.6793 19.5467 95.5593 19.3867 95.4659 19.2C95.3859 19.0133 95.3459 18.8133 95.3459 18.6ZM103.584 16.04C103.664 16.76 103.944 17.32 104.424 17.72C104.904 18.12 105.484 18.32 106.164 18.32C106.764 18.32 107.264 18.2 107.664 17.96C108.077 17.7067 108.437 17.3933 108.744 17.02L110.464 18.32C109.904 19.0133 109.277 19.5067 108.584 19.8C107.891 20.0933 107.164 20.24 106.404 20.24C105.684 20.24 105.004 20.12 104.364 19.88C103.724 19.64 103.171 19.3 102.704 18.86C102.237 18.42 101.864 17.8933 101.584 17.28C101.317 16.6533 101.184 15.96 101.184 15.2C101.184 14.44 101.317 13.7533 101.584 13.14C101.864 12.5133 102.237 11.98 102.704 11.54C103.171 11.1 103.724 10.76 104.364 10.52C105.004 10.28 105.684 10.16 106.404 10.16C107.071 10.16 107.677 10.28 108.224 10.52C108.784 10.7467 109.257 11.08 109.644 11.52C110.044 11.96 110.351 12.5067 110.564 13.16C110.791 13.8 110.904 14.54 110.904 15.38V16.04H103.584ZM108.504 14.24C108.491 13.5333 108.271 12.98 107.844 12.58C107.417 12.1667 106.824 11.96 106.064 11.96C105.344 11.96 104.771 12.1667 104.344 12.58C103.931 12.9933 103.677 13.5467 103.584 14.24H108.504ZM122.308 20H120.028V18.46H119.988C119.762 18.94 119.415 19.36 118.948 19.72C118.482 20.0667 117.848 20.24 117.048 20.24C116.408 20.24 115.862 20.14 115.408 19.94C114.968 19.7267 114.608 19.4467 114.328 19.1C114.048 18.74 113.848 18.3333 113.728 17.88C113.608 17.4267 113.548 16.9533 113.548 16.46V10.4H115.948V15.26C115.948 15.5267 115.962 15.8267 115.988 16.16C116.015 16.48 116.082 16.7867 116.188 17.08C116.308 17.36 116.482 17.6 116.708 17.8C116.948 17.9867 117.282 18.08 117.708 18.08C118.108 18.08 118.442 18.0133 118.708 17.88C118.988 17.7467 119.215 17.5667 119.388 17.34C119.575 17.1133 119.708 16.8533 119.788 16.56C119.868 16.2667 119.908 15.96 119.908 15.64V10.4H122.308V20ZM124.133 10.4H126.773L129.453 17.06H129.493L131.893 10.4H134.393L129.853 22.06C129.679 22.5133 129.486 22.9067 129.273 23.24C129.073 23.5867 128.833 23.8733 128.553 24.1C128.273 24.34 127.939 24.5133 127.553 24.62C127.179 24.74 126.726 24.8 126.193 24.8C125.566 24.8 124.953 24.72 124.353 24.56L124.653 22.4C124.839 22.4667 125.033 22.52 125.233 22.56C125.446 22.6133 125.659 22.64 125.873 22.64C126.166 22.64 126.413 22.6133 126.613 22.56C126.813 22.5067 126.979 22.42 127.113 22.3C127.259 22.1933 127.379 22.0467 127.473 21.86C127.566 21.6867 127.666 21.4733 127.773 21.22L128.233 20.08L124.133 10.4Z" fill="#F4694C"/>
</svg>
